<?xml version="1.0" standalone="no"?>
<!DOCTYPE svg PUBLIC "-//W3C//DTD SVG 20010904//EN"
 "http://www.w3.org/TR/2001/REC-SVG-20010904/DTD/svg10.dtd">
<svg version="1.0" xmlns="http://www.w3.org/2000/svg"
 width="1182.000000pt" height="1182.000000pt" viewBox="0 0 1182.000000 1182.000000"
 preserveAspectRatio="xMidYMid meet">
<metadata>
Created by potrace 1.14, written by Peter Selinger 2001-2017
</metadata>
<g transform="translate(0.000000,1182.000000) scale(0.100000,-0.100000)"
fill="#000000" stroke="none">
<path d="M5575 11809 c-1153 -63 -2283 -476 -3210 -1173 -367 -276 -720 -613
-1021 -976 -321 -387 -637 -901 -844 -1370 -585 -1326 -657 -2862 -201 -4238
246 -741 640 -1434 1151 -2022 120 -139 397 -418 535 -540 1002 -885 2224
-1394 3555 -1481 229 -15 735 -6 949 15 1684 173 3176 1020 4182 2376 574 773
951 1692 1094 2665 43 293 49 402 50 835 0 446 -7 563 -56 890 -168 1118 -662
2177 -1413 3028 -1203 1362 -2949 2091 -4771 1991z m860 -34 c1098 -98 2135
-497 3016 -1160 426 -321 821 -714 1151 -1145 317 -415 611 -940 800 -1430 63
-161 138 -392 132 -401 -3 -5 -1 -9 4 -9 5 0 17 -28 26 -62 9 -35 25 -97 36
-138 53 -194 134 -595 124 -612 -3 -4 -1 -16 5 -25 11 -22 40 -260 46 -383 1
-30 6 -68 9 -85 l7 -30 -15 25 -15 25 3 -28 c2 -16 8 -32 14 -36 6 -4 12 -64
15 -156 3 -103 2 -133 -4 -95 -4 30 -6 63 -3 73 7 23 -5 59 -18 51 -7 -4 -7
-9 1 -13 6 -4 8 -22 4 -44 -5 -36 -7 -37 -49 -37 l-44 0 0 -40 0 -40 -46 0
-45 0 3 -42 c3 -41 5 -43 36 -44 17 -1 37 -2 42 -3 6 0 10 -17 10 -36 l0 -35
-55 0 -55 0 0 189 c0 158 -13 386 -34 586 -14 136 -87 523 -131 690 -135 523
-322 986 -578 1430 -114 197 -288 460 -393 595 -24 30 -63 80 -86 110 -332
428 -820 875 -1303 1195 -799 529 -1647 826 -2625 921 -211 21 -737 24 -940 6
-782 -70 -1442 -255 -2112 -593 -1109 -560 -2030 -1506 -2557 -2628 -378 -803
-561 -1667 -538 -2541 8 -276 18 -410 52 -657 139 -1006 542 -1943 1184 -2748
240 -302 579 -641 875 -876 262 -209 491 -364 781 -528 116 -66 472 -243 515
-256 14 -4 48 -18 75 -31 175 -79 587 -214 835 -273 165 -39 414 -87 520 -101
212 -27 430 -50 487 -50 39 0 63 -4 67 -12 5 -11 7 -11 12 0 3 6 15 12 25 12
11 0 17 -4 14 -10 -3 -6 5 -10 19 -10 13 0 26 6 29 13 3 9 7 9 17 0 9 -8 38
-10 95 -6 98 7 164 -2 145 -20 -10 -9 -14 -9 -17 1 -3 8 -30 12 -84 12 l-79 0
0 -53 c0 -53 1 -54 28 -52 43 3 52 -5 52 -41 l0 -34 -75 0 -75 0 -2 43 -1 42
-4 -42 c-4 -43 -4 -43 -46 -45 l-42 -1 45 -7 45 -7 -43 -1 c-24 -1 -41 -6 -37
-11 3 -6 -9 -5 -30 0 -19 6 -40 7 -45 4 -6 -3 -10 -1 -10 6 0 8 12 9 38 4 20
-4 34 -3 30 1 -11 10 -148 13 -148 2 0 -9 -133 -11 -143 -2 -4 4 -39 8 -79 10
-124 6 -411 50 -588 89 -374 83 -544 132 -845 242 -445 163 -917 410 -1330
697 -479 333 -936 773 -1316 1266 -82 106 -223 312 -310 450 -868 1390 -1112
3090 -674 4685 427 1554 1514 2896 2955 3648 731 381 1541 604 2385 657 190
12 652 4 860 -15z m-1970 -465 c-3 -5 -12 -10 -20 -10 -8 0 -16 -4 -20 -9 -3
-6 6 -6 25 -1 23 7 30 5 30 -5 0 -7 8 -15 18 -18 9 -2 -5 -2 -33 -1 -27 2 -42
1 -32 -2 20 -6 23 -40 5 -47 -10 -4 -9 -8 2 -17 11 -9 12 -13 3 -17 -10 -3
-13 -54 -13 -204 0 -170 -2 -199 -15 -199 -11 0 -15 11 -15 40 0 22 -4 40 -10
40 -6 0 -10 -60 -10 -160 0 -136 -2 -160 -15 -160 -12 0 -15 -16 -15 -80 0
-79 0 -80 -25 -80 -25 0 -25 -1 -25 -80 0 -64 -3 -80 -15 -80 -12 0 -15 -16
-15 -80 0 -79 0 -80 -25 -80 -22 0 -25 -4 -25 -40 0 -29 -4 -40 -15 -40 -12 0
-15 -16 -15 -80 0 -79 0 -80 -25 -80 -22 0 -25 -4 -25 -40 0 -29 -4 -40 -15
-40 -11 0 -15 -11 -15 -40 0 -36 -2 -40 -25 -40 -22 0 -25 -4 -25 -40 0 -29
-4 -40 -15 -40 -12 0 -15 -16 -15 -80 0 -64 -3 -80 -15 -80 -11 0 -15 11 -15
40 0 22 -4 40 -10 40 -5 0 -10 -18 -10 -40 0 -29 -4 -40 -15 -40 -15 0 -18
-30 -20 -202 0 -24 -4 -46 -10 -50 -6 -5 -4 -12 5 -19 13 -9 13 -10 0 -6 -17
4 -17 5 -19 115 0 45 -5 82 -10 82 -5 0 -12 -36 -16 -80 -5 -57 -11 -80 -20
-80 -9 0 -15 -16 -17 -46 -4 -56 -30 -81 -53 -50 -21 28 -37 16 -20 -16 14
-29 8 -37 -13 -16 -9 9 -12 8 -12 -5 0 -9 6 -17 13 -17 7 0 4 -7 -7 -15 -11
-8 -17 -17 -14 -20 3 -3 11 1 18 10 7 8 19 15 26 15 8 0 14 4 14 9 0 8 25 25
105 71 73 41 140 85 143 92 2 4 9 8 16 8 7 0 46 18 86 40 40 22 74 40 76 40 1
0 35 15 76 34 373 172 777 284 1198 332 177 21 602 24 770 6 557 -60 1042
-216 1517 -488 435 -250 820 -592 1134 -1009 404 -535 657 -1187 730 -1880 30
-284 12 -727 -42 -1028 -209 -1164 -944 -2152 -2004 -2692 -393 -201 -790
-320 -1270 -381 -195 -25 -652 -26 -850 -1 -247 31 -435 70 -650 134 -1311
388 -2322 1485 -2604 2828 -127 604 -101 1268 74 1853 47 159 127 383 148 416
7 12 24 49 36 84 13 34 28 65 32 68 5 3 9 12 9 20 0 8 10 31 23 52 12 20 30
53 39 74 14 31 15 37 3 42 -8 3 -14 2 -13 -2 0 -4 -4 -18 -11 -32 -11 -25 -11
-25 -7 5 4 26 3 27 -9 12 -8 -11 -26 -17 -49 -17 -25 0 -36 -4 -36 -15 0 -11
-11 -15 -40 -15 -22 0 -40 -4 -40 -10 0 -5 23 -10 50 -10 52 0 54 -2 40 -35
-7 -17 -9 -17 -9 -2 -1 19 -10 20 -100 11 -41 -5 -61 -11 -61 -20 0 -10 -13
-14 -40 -14 -22 0 -40 -4 -40 -10 0 -5 18 -10 40 -10 29 0 40 -4 40 -15 0 -11
-11 -15 -40 -15 -29 0 -40 -4 -40 -15 0 -11 -11 -15 -40 -15 -36 0 -40 -2 -40
-25 0 -22 -4 -25 -40 -25 -29 0 -40 -4 -40 -15 0 -11 -11 -15 -40 -15 -36 0
-40 -2 -40 -25 0 -22 -4 -25 -40 -25 -29 0 -40 -4 -40 -15 0 -11 -11 -15 -40
-15 -36 0 -40 -2 -40 -25 0 -22 -4 -25 -40 -25 -29 0 -40 -4 -40 -15 0 -12
-16 -15 -80 -15 -47 0 -80 -4 -80 -10 0 -5 18 -10 40 -10 29 0 40 -4 40 -15 0
-12 -16 -15 -80 -15 -64 0 -80 -3 -80 -15 0 -11 -11 -15 -40 -15 -36 0 -40 -2
-40 -25 0 -25 -1 -25 -80 -25 -64 0 -80 -3 -80 -15 0 -12 -16 -15 -80 -15 -47
0 -80 -4 -80 -10 0 -5 18 -10 40 -10 29 0 40 -4 40 -15 0 -12 -16 -15 -80 -15
-64 0 -80 -3 -80 -15 0 -12 -20 -15 -120 -15 -73 0 -120 -4 -120 -10 0 -5 18
-10 40 -10 29 0 40 -4 40 -15 0 -13 -24 -15 -160 -15 -136 0 -160 -2 -160 -15
0 -11 -11 -15 -40 -15 -37 0 -40 2 -41 28 -2 23 -2 24 -6 5 -6 -31 -23 -29
-23 1 0 14 -4 27 -8 30 -6 4 9 123 18 146 1 3 2 8 2 11 -1 5 39 160 82 319 8
31 35 116 59 190 497 1501 1641 2745 3096 3367 185 79 472 180 671 237 101 28
103 29 95 16z m42 4 c-3 -3 -12 -4 -19 -1 -8 3 -5 6 6 6 11 1 17 -2 13 -5z
m1105 -262 c94 -250 264 -697 288 -757 13 -34 -7 -80 170 385 51 135 112 295
136 355 23 61 56 147 74 193 l31 82 225 0 224 0 0 -745 0 -745 -147 3 -148 4
-5 503 -5 504 -189 -502 c-104 -275 -194 -503 -200 -505 -6 -2 -80 -4 -164 -3
l-154 1 -119 315 c-66 173 -152 402 -192 508 l-72 193 -3 -510 -2 -510 -150 1
-150 0 0 744 0 744 228 0 227 0 97 -258z m3912 -1102 c53 -63 96 -118 96 -121
0 -3 -115 -160 -255 -349 -140 -189 -253 -345 -251 -347 1 -2 179 76 395 172
216 96 396 175 400 175 10 0 231 -267 231 -278 0 -4 -35 -58 -77 -119 -151
-217 -413 -601 -413 -606 0 -3 176 82 391 189 216 107 393 193 394 192 1 -2
50 -61 110 -132 l107 -130 -623 -312 c-343 -172 -627 -313 -631 -313 -6 -1
-233 266 -251 295 -4 8 83 148 232 371 131 197 237 360 235 362 -1 2 -178 -72
-392 -163 -214 -91 -394 -166 -400 -166 -6 0 -68 67 -137 150 l-126 150 217
287 c120 159 310 410 423 560 160 212 208 270 218 260 6 -7 54 -64 107 -127z
m-6967 -2294 c-9 -7 -17 -18 -17 -25 0 -6 -4 -11 -10 -11 -19 0 -10 32 10 37
11 3 20 10 20 16 0 6 3 7 7 3 5 -4 0 -13 -10 -20z m-42 -84 c-8 -8 -25 10 -19
20 4 6 9 5 15 -3 4 -7 6 -15 4 -17z m-2072 -588 c4 -20 1 -46 -5 -58 -11 -20
-11 -20 -19 -1 -11 29 -10 42 1 25 7 -11 8 -2 4 28 -4 25 -3 42 3 42 6 0 13
-16 16 -36z m11334 -1111 c-2 -21 -4 -4 -4 37 0 41 2 58 4 38 2 -21 2 -55 0
-75z m20 -10 c-3 -10 -5 -4 -5 12 0 17 2 24 5 18 2 -7 2 -21 0 -30z m3 -88 c0
-25 -3 -45 -8 -45 -4 0 -6 20 -4 45 2 25 6 45 8 45 2 0 4 -20 4 -45z m-206
-37 c-7 -49 -8 -50 -15 -23 -3 17 -7 41 -7 55 0 22 1 22 8 -5 l8 -30 1 34 c0
19 4 32 7 28 3 -3 3 -30 -2 -59z m-17 -180 c-3 -8 -6 -5 -6 6 -1 11 2 17 5 13
3 -3 4 -12 1 -19z m20 -130 c-3 -8 -6 -5 -6 6 -1 11 2 17 5 13 3 -3 4 -12 1
-19z m-5357 -5178 c0 -5 -7 -7 -15 -4 -8 4 -15 8 -15 10 0 2 7 4 15 4 8 0 15
-4 15 -10z m103 3 c-7 -2 -21 -2 -30 0 -10 3 -4 5 12 5 17 0 24 -2 18 -5z
m-195 -10 c-10 -2 -26 -2 -35 0 -10 3 -2 5 17 5 19 0 27 -2 18 -5z m-598 -203
c0 -5 -4 -10 -10 -10 -5 0 -10 5 -10 10 0 6 5 10 10 10 6 0 10 -4 10 -10z
m207 -16 c-3 -3 -12 -4 -19 -1 -8 3 -5 6 6 6 11 1 17 -2 13 -5z m191 -1 c-32
-2 -86 -2 -120 0 -35 2 -9 3 57 3 66 0 94 -1 63 -3z"/>
<path d="M11582 6405 c0 -16 2 -22 5 -12 2 9 2 23 0 30 -3 6 -5 -1 -5 -18z"/>
<path d="M11760 6250 c0 -5 5 -10 11 -10 5 0 7 5 4 10 -3 6 -8 10 -11 10 -2 0
-4 -4 -4 -10z"/>
<path d="M11586 6148 c-3 -13 -5 -32 -5 -43 1 -11 5 -2 10 19 10 42 6 62 -5
24z"/>
<path d="M11586 6065 c-3 -9 -5 -31 -5 -48 1 -27 3 -24 9 13 8 48 6 61 -4 35z"/>
<path d="M5498 243 c7 -3 16 -2 19 1 4 3 -2 6 -13 5 -11 0 -14 -3 -6 -6z"/>
<path d="M5768 223 c6 -2 18 -2 25 0 6 3 1 5 -13 5 -14 0 -19 -2 -12 -5z"/>
<path d="M5098 123 c7 -3 16 -2 19 1 4 3 -2 6 -13 5 -11 0 -14 -3 -6 -6z"/>
<path d="M4375 11270 c3 -5 11 -10 16 -10 6 0 7 5 4 10 -3 6 -11 10 -16 10 -6
0 -7 -4 -4 -10z"/>
<path d="M2651 9849 c105 -102 155 -231 131 -335 l-9 -42 31 13 c31 13 31 15
30 83 0 63 -4 76 -42 139 -23 39 -67 94 -98 122 -77 70 -112 86 -43 20z"/>
<path d="M2254 9550 c-19 -8 -76 -68 -204 -221 -179 -212 -270 -324 -268 -329
3 -6 45 -42 201 -173 31 -27 57 -44 57 -39 0 5 -30 34 -66 63 -37 30 -84 70
-105 89 l-39 35 224 266 c151 179 234 270 255 279 18 7 50 10 74 7 l42 -5 -40
19 c-42 20 -96 23 -131 9z"/>
<path d="M5685 9534 c-16 -2 -82 -9 -145 -15 -63 -6 -162 -22 -220 -35 -71
-16 -89 -23 -55 -20 l50 5 -35 -14 c-19 -7 -45 -14 -56 -14 -22 -1 -56 -31
-35 -31 6 0 11 5 11 11 0 8 14 10 40 6 22 -3 40 -1 40 4 0 5 19 8 43 7 40 -1
40 -1 7 -5 -19 -2 -39 -10 -45 -17 -5 -7 -17 -16 -25 -19 -8 -4 1 -5 20 -2
154 22 486 54 573 55 4 0 6 -782 5 -1737 l-3 -1738 -1742 -3 c-1392 -2 -1742
0 -1738 10 9 27 14 238 6 233 -5 -3 -7 4 -4 15 3 11 9 20 14 20 5 0 9 7 9 15
0 17 -16 20 -25 5 -11 -18 -23 -10 -30 20 -12 53 -33 36 -28 -22 2 -32 0 -46
-5 -35 -12 29 -17 -66 -16 -378 0 -299 10 -416 60 -665 157 -790 572 -1503
1179 -2027 1038 -897 2457 -1136 3740 -630 281 111 616 302 860 490 1079 836
1602 2187 1364 3527 -150 847 -608 1627 -1275 2171 -573 468 -1220 732 -1983
809 -93 9 -483 12 -556 4z m530 -104 c1042 -95 1971 -623 2573 -1463 399 -556
617 -1180 658 -1879 l7 -118 -1737 0 -1736 0 0 1735 0 1735 63 0 c34 0 112 -5
172 -10z m-3855 -3234 c0 -26 -6 -18 -14 19 -5 22 -4 26 4 15 5 -8 10 -24 10
-34z m3498 -486 c2 -74 0 -852 -3 -1728 -7 -1433 -9 -1594 -23 -1600 -9 -3
-18 0 -20 6 -2 7 -12 12 -23 12 -10 0 -19 7 -19 15 0 8 -4 15 -10 15 -21 0 -5
-33 20 -43 8 -3 -6 -6 -32 -6 -41 -1 -46 1 -41 19 3 11 0 20 -6 20 -6 0 -10
-6 -8 -13 8 -42 -448 22 -726 101 -54 15 -94 31 -90 35 4 5 0 5 -8 2 -9 -3
-65 12 -125 33 -1292 462 -2195 1607 -2339 2967 -8 77 -15 178 -15 225 l0 85
1732 -5 1733 -5 3 -135z m129 -487 c-1 -115 -2 -21 -2 207 0 228 1 322 2 208
2 -115 2 -301 0 -415z m1757 547 c891 -6 1622 -12 1624 -15 8 -7 2 -142 -9
-220 -19 -142 -31 -197 -39 -184 -12 18 -25 -60 -14 -80 11 -20 6 -90 -5 -72
-5 7 -11 -19 -14 -59 -3 -40 -11 -77 -17 -84 -5 -7 -14 -33 -19 -57 -15 -79
-51 -203 -71 -245 -10 -23 -22 -54 -26 -68 -6 -25 -7 -25 -20 -9 -12 16 -13
14 -8 -14 6 -28 3 -34 -17 -42 -24 -10 -24 -10 -2 -10 21 -1 21 -3 8 -28 -8
-16 -40 -82 -70 -147 -43 -91 -59 -116 -66 -105 -8 10 -9 8 -4 -9 5 -17 -11
-52 -61 -140 -37 -64 -78 -131 -91 -148 -12 -17 -23 -36 -23 -42 0 -7 -3 -12
-8 -12 -4 0 -18 -18 -32 -39 -13 -22 -28 -37 -34 -34 -5 3 -6 1 -3 -4 4 -6 -1
-20 -11 -31 -9 -11 -35 -44 -57 -73 -60 -77 -88 -107 -81 -86 4 11 2 16 -5 12
-5 -4 -7 -15 -4 -25 6 -19 -21 -54 -35 -45 -5 3 -12 0 -16 -6 -4 -8 -3 -9 4
-5 20 12 13 -10 -8 -29 -20 -18 -21 -18 -15 1 3 10 -1 5 -9 -12 -17 -36 -42
-59 -65 -59 -10 0 -16 -9 -16 -25 0 -18 -5 -25 -18 -23 -10 0 -16 -2 -13 -5 8
-7 -35 -53 -44 -47 -4 3 -7 -3 -6 -13 1 -12 -5 -16 -20 -15 -12 1 -30 -8 -40
-20 l-19 -22 23 19 c12 11 24 17 27 14 7 -6 -61 -68 -75 -68 -5 0 -10 -3 -10
-7 0 -14 -62 -71 -150 -138 -47 -36 -93 -73 -103 -81 -11 -8 -27 -16 -37 -17
-10 -1 -17 -4 -14 -8 2 -4 -7 -14 -20 -22 -13 -9 -31 -23 -41 -33 -9 -10 -30
-17 -46 -17 -17 0 -25 -3 -19 -7 13 -8 -50 -51 -175 -118 -22 -12 -46 -22 -54
-22 -8 0 -11 -3 -8 -6 5 -6 -182 -104 -197 -104 -3 0 -40 -17 -83 -37 -50 -24
-92 -36 -118 -36 -27 0 -34 -2 -20 -7 15 -5 8 -10 -35 -24 -30 -10 -69 -24
-87 -32 -17 -8 -45 -14 -62 -14 -17 0 -31 -5 -31 -11 0 -6 -9 -8 -22 -4 -13 4
-30 9 -39 11 -8 2 -24 -2 -35 -10 -17 -14 -16 -15 21 -9 22 3 38 3 35 1 -10
-11 -132 -38 -142 -31 -6 3 -8 1 -5 -4 4 -6 -16 -15 -51 -22 -114 -22 -184
-32 -190 -27 -3 3 -11 1 -17 -4 -7 -6 -34 -13 -61 -15 -27 -3 -56 -7 -64 -10
-30 -9 -265 -24 -272 -17 -9 9 -23 3296 -14 3311 4 6 22 11 39 11 18 0 761 -5
1651 -10z m1580 -467 c-10 -40 -14 -41 -14 -5 0 18 5 32 10 32 6 0 8 -11 4
-27z m-3337 -425 c-2 -13 -4 -3 -4 22 0 25 2 35 4 23 2 -13 2 -33 0 -45z
m2443 -1348 c0 -5 -4 -10 -10 -10 -5 0 -10 5 -10 10 0 6 5 10 10 10 6 0 10 -4
10 -10z"/>
<path d="M8760 6040 c-124 -6 -123 -6 80 -10 l205 -4 -205 -6 c-113 -3 -185
-7 -160 -9 l45 -4 -45 -7 c-25 -4 119 -8 320 -9 201 -1 375 -4 388 -7 20 -6
22 -3 22 30 l0 36 -262 -2 c-145 -1 -319 -5 -388 -8z"/>
<path d="M5588 2433 c7 -3 16 -2 19 1 4 3 -2 6 -13 5 -11 0 -14 -3 -6 -6z"/>
<path d="M5698 2433 c6 -2 18 -2 25 0 6 3 1 5 -13 5 -14 0 -19 -2 -12 -5z"/>
<path d="M5448 2423 c7 -3 16 -2 19 1 4 3 -2 6 -13 5 -11 0 -14 -3 -6 -6z"/>
<path d="M9281 5474 c0 -11 3 -14 6 -6 3 7 2 16 -1 19 -3 4 -6 -2 -5 -13z"/>
<path d="M9292 5395 c0 -16 2 -22 5 -12 2 9 2 23 0 30 -3 6 -5 -1 -5 -18z"/>
<path d="M9283 5295 c0 -27 2 -38 4 -22 2 15 2 37 0 50 -2 12 -4 0 -4 -28z"/>
<path d="M9211 5053 c0 -12 2 -28 5 -37 5 -13 8 -13 20 -1 8 7 14 20 14 27 0
7 -6 4 -12 -7 -12 -19 -13 -18 -19 10 -5 22 -7 24 -8 8z"/>
<path d="M9216 4945 c-9 -26 -7 -32 5 -12 6 10 9 21 6 23 -2 3 -7 -2 -11 -11z"/>
<path d="M9140 4771 c0 -17 18 -21 24 -6 3 9 0 15 -9 15 -8 0 -15 -4 -15 -9z"/>
<path d="M9131 4734 c0 -11 3 -14 6 -6 3 7 2 16 -1 19 -3 4 -6 -2 -5 -13z"/>
<path d="M9082 4570 c0 -14 2 -19 5 -12 2 6 2 18 0 25 -3 6 -5 1 -5 -13z"/>
<path d="M9051 4554 c0 -11 3 -14 6 -6 3 7 2 16 -1 19 -3 4 -6 -2 -5 -13z"/>
<path d="M9017 4443 c-10 -9 -9 -23 2 -23 5 0 11 7 15 15 5 15 -5 20 -17 8z"/>
<path d="M8881 4284 c0 -11 3 -14 6 -6 3 7 2 16 -1 19 -3 4 -6 -2 -5 -13z"/>
<path d="M8910 4289 c0 -5 5 -7 10 -4 6 3 10 8 10 11 0 2 -4 4 -10 4 -5 0 -10
-5 -10 -11z"/>
<path d="M8936 4281 c-4 -7 -5 -15 -2 -18 9 -9 19 4 14 18 -4 11 -6 11 -12 0z"/>
<path d="M8907 4233 c-2 -10 -8 -27 -12 -38 -6 -15 -2 -13 13 7 23 27 28 48
13 48 -5 0 -11 -8 -14 -17z"/>
<path d="M8881 4224 c0 -11 3 -14 6 -6 3 7 2 16 -1 19 -3 4 -6 -2 -5 -13z"/>
<path d="M8815 4119 c-4 -11 -4 -23 -1 -26 3 -4 6 1 6 10 0 10 5 17 10 17 6 0
10 -5 10 -11 0 -8 5 -8 15 1 8 7 15 17 15 22 0 6 -7 5 -15 -2 -10 -9 -15 -9
-15 -1 0 19 -18 12 -25 -10z"/>
<path d="M8805 4049 c-4 -6 -5 -12 -2 -15 2 -3 7 2 10 11 7 17 1 20 -8 4z"/>
<path d="M8721 3963 c-1 -12 4 -25 9 -28 12 -7 12 2 0 30 -8 19 -9 19 -9 -2z"/>
<path d="M8750 3969 c0 -5 5 -7 10 -4 6 3 10 8 10 11 0 2 -4 4 -10 4 -5 0 -10
-5 -10 -11z"/>
<path d="M8670 3880 c0 -5 5 -10 10 -10 6 0 10 5 10 10 0 6 -4 10 -10 10 -5 0
-10 -4 -10 -10z"/>
<path d="M8646 3847 c3 -10 9 -15 12 -12 3 3 0 11 -7 18 -10 9 -11 8 -5 -6z"/>
<path d="M8560 3778 c0 -36 4 -35 14 5 4 16 2 27 -4 27 -5 0 -10 -14 -10 -32z"/>
<path d="M8597 3783 c-4 -3 -7 -16 -6 -27 0 -19 1 -19 10 3 10 24 8 36 -4 24z"/>
<path d="M8322 3483 c2 -10 10 -18 18 -18 22 0 18 29 -3 33 -14 3 -18 -1 -15
-15z m28 -3 c0 -5 -4 -10 -10 -10 -5 0 -10 5 -10 10 0 6 5 10 10 10 6 0 10 -4
10 -10z"/>
<path d="M8013 3253 c9 -2 23 -2 30 0 6 3 -1 5 -18 5 -16 0 -22 -2 -12 -5z"/>
<path d="M8077 3249 c7 -7 15 -10 18 -7 3 3 -2 9 -12 12 -14 6 -15 5 -6 -5z"/>
<path d="M8048 3223 c7 -3 16 -2 19 1 4 3 -2 6 -13 5 -11 0 -14 -3 -6 -6z"/>
<path d="M8000 3210 c0 -5 5 -10 10 -10 6 0 10 5 10 10 0 6 -4 10 -10 10 -5 0
-10 -4 -10 -10z"/>
<path d="M7980 3170 c0 -5 4 -10 9 -10 6 0 13 5 16 10 3 6 -1 10 -9 10 -9 0
-16 -4 -16 -10z"/>
<path d="M7930 3135 c-11 -13 -10 -14 4 -9 9 3 16 10 16 15 0 13 -6 11 -20 -6z"/>
<path d="M7850 3070 c-8 -5 -12 -12 -9 -15 4 -3 12 1 19 10 14 17 11 19 -10 5z"/>
<path d="M7720 3000 c0 -5 5 -10 10 -10 6 0 10 5 10 10 0 6 -4 10 -10 10 -5 0
-10 -4 -10 -10z"/>
<path d="M7680 2991 c0 -5 7 -12 16 -15 14 -5 15 -4 4 9 -14 17 -20 19 -20 6z"/>
<path d="M7578 2933 c6 -2 18 -2 25 0 6 3 1 5 -13 5 -14 0 -19 -2 -12 -5z"/>
<path d="M7452 2844 c-9 -9 -22 -12 -35 -8 -20 6 -21 5 -6 -10 15 -17 49 -13
49 5 0 5 10 9 23 9 18 0 19 2 7 10 -19 13 -22 12 -38 -6z"/>
<path d="M7370 2790 c0 -5 5 -10 10 -10 6 0 10 5 10 10 0 6 -4 10 -10 10 -5 0
-10 -4 -10 -10z"/>
<path d="M7261 2776 c2 -2 18 -6 34 -10 22 -5 26 -4 15 4 -14 9 -59 15 -49 6z"/>
<path d="M7200 2749 c0 -5 5 -7 10 -4 6 3 10 8 10 11 0 2 -4 4 -10 4 -5 0 -10
-5 -10 -11z"/>
<path d="M7200 2720 c0 -5 5 -10 11 -10 5 0 7 5 4 10 -3 6 -8 10 -11 10 -2 0
-4 -4 -4 -10z"/>
<path d="M7000 2690 c0 -5 4 -10 9 -10 6 0 13 5 16 10 3 6 -1 10 -9 10 -9 0
-16 -4 -16 -10z"/>
<path d="M7040 2691 c0 -4 11 -6 25 -3 14 2 25 6 25 8 0 2 -11 4 -25 4 -14 0
-25 -4 -25 -9z"/>
<path d="M6991 2650 c-13 -11 -18 -20 -13 -20 6 0 14 5 17 10 3 6 18 10 33 10
21 0 24 2 12 10 -20 13 -21 13 -49 -10z"/>
<path d="M6748 2603 c7 -3 16 -2 19 1 4 3 -2 6 -13 5 -11 0 -14 -3 -6 -6z"/>
<path d="M6748 2573 c6 -2 18 -2 25 0 6 3 1 5 -13 5 -14 0 -19 -2 -12 -5z"/>
<path d="M6305 2531 c-17 -7 -16 -9 13 -16 18 -4 36 -4 39 -1 4 3 -5 7 -18 8
-13 0 -4 4 21 8 l45 7 -40 1 c-22 0 -49 -3 -60 -7z"/>
<path d="M6073 2495 c0 -22 2 -30 4 -17 2 12 2 30 0 40 -3 9 -5 -1 -4 -23z"/>
<path d="M6448 2523 c6 -2 18 -2 25 0 6 3 1 5 -13 5 -14 0 -19 -2 -12 -5z"/>
<path d="M6298 2493 c7 -3 16 -2 19 1 4 3 -2 6 -13 5 -11 0 -14 -3 -6 -6z"/>
<path d="M3260 9401 c127 -135 141 -302 40 -471 -21 -36 -152 -200 -291 -365
-595 -708 -544 -643 -524 -665 29 -32 33 -30 94 48 18 23 37 40 41 37 5 -3 12
0 16 6 4 8 3 9 -4 5 -22 -14 -12 6 29 54 23 27 46 47 50 44 5 -3 6 2 3 10 -4
11 0 16 10 16 9 0 16 6 16 13 0 6 23 39 51 72 28 33 70 82 93 109 22 27 55 66
71 85 43 52 58 66 66 66 4 0 11 4 16 9 5 5 3 6 -4 2 -23 -13 -14 10 12 32 14
12 25 27 25 33 0 6 7 8 16 5 8 -3 12 -2 9 4 -5 8 92 133 179 230 12 14 33 39
46 57 13 18 28 29 33 26 6 -3 7 -1 4 4 -4 6 8 40 25 75 31 60 33 69 33 173 0
103 -2 113 -29 163 -16 28 -51 73 -77 99 -26 26 -46 50 -43 55 3 4 -1 5 -9 2
-8 -3 -18 -1 -22 5 -3 6 -10 11 -14 11 -4 0 14 -22 39 -49z"/>
<path d="M5223 9413 c9 -2 23 -2 30 0 6 3 -1 5 -18 5 -16 0 -22 -2 -12 -5z"/>
<path d="M5197 9393 c-3 -5 6 -9 19 -9 13 -1 21 2 18 7 -6 11 -31 12 -37 2z"/>
<path d="M5708 9363 c12 -2 30 -2 40 0 9 3 -1 5 -23 4 -22 0 -30 -2 -17 -4z"/>
<path d="M5357 9319 c7 -7 15 -10 18 -7 3 3 -2 9 -12 12 -14 6 -15 5 -6 -5z"/>
<path d="M2764 9203 c-36 -7 -76 -50 -305 -323 l-221 -264 34 -31 c102 -91
242 -204 247 -199 6 6 -35 43 -151 136 l-76 61 135 161 c75 89 154 183 177
211 171 206 204 232 282 223 43 -5 43 -1 -1 18 -33 13 -76 16 -121 7z"/>
<path d="M3820 9136 c0 -25 4 -47 9 -50 13 -8 17 9 13 55 -5 53 -22 50 -22 -5z"/>
<path d="M3714 9012 c-16 -11 -13 -51 4 -45 7 3 10 13 7 21 -3 8 0 19 7 24 7
4 9 8 3 8 -5 0 -15 -4 -21 -8z"/>
<path d="M3600 8921 c0 -10 19 -25 25 -20 1 2 -3 10 -11 17 -8 7 -14 8 -14 3z"/>
<path d="M2815 8060 c-4 -6 -11 -8 -16 -5 -5 3 -6 -1 -3 -10 4 -9 7 -15 8 -13
1 2 8 11 15 21 7 9 11 17 8 17 -3 0 -9 -5 -12 -10z"/>
<path d="M2765 8001 c-3 -5 -1 -12 5 -16 5 -3 10 1 10 9 0 18 -6 21 -15 7z"/>
<path d="M2390 7956 c0 -2 8 -10 18 -17 15 -13 16 -12 3 4 -13 16 -21 21 -21
13z"/>
<path d="M2730 7949 c0 -5 5 -7 10 -4 6 3 10 8 10 11 0 2 -4 4 -10 4 -5 0 -10
-5 -10 -11z"/>
<path d="M2481 7885 c-2 -24 16 -37 35 -26 18 10 18 10 -3 11 -12 0 -24 6 -26
13 -3 6 -6 8 -6 2z"/>
<path d="M2686 7881 c-4 -7 -5 -15 -2 -18 9 -9 19 4 14 18 -4 11 -6 11 -12 0z"/>
<path d="M2533 7847 c-13 -5 -23 -13 -23 -18 0 -10 39 1 46 13 9 15 1 16 -23
5z"/>
<path d="M2643 7830 c6 -21 -11 -50 -28 -50 -8 0 -15 -4 -15 -10 0 -19 30 -10
46 14 12 20 13 29 4 43 -7 11 -10 12 -7 3z"/>
<path d="M2480 7750 c0 -5 18 -10 40 -10 22 0 40 5 40 10 0 6 -18 10 -40 10
-22 0 -40 -4 -40 -10z"/>
<path d="M461 7054 c0 -11 3 -14 6 -6 3 7 2 16 -1 19 -3 4 -6 -2 -5 -13z"/>
<path d="M2525 6539 c-4 -6 -4 -13 -1 -16 3 -4 6 -1 6 6 0 7 5 9 12 5 7 -4 8
-3 4 4 -9 15 -13 15 -21 1z"/>
<path d="M2507 6503 c-4 -3 -7 -13 -7 -22 1 -13 3 -13 11 2 11 19 8 33 -4 20z"/>
<path d="M2360 6289 c0 -5 5 -7 10 -4 6 3 10 8 10 11 0 2 -4 4 -10 4 -5 0 -10
-5 -10 -11z"/>
</g>
</svg>
